<?xml version="1.0" standalone="no"?>
<!DOCTYPE svg PUBLIC "-//W3C//DTD SVG 20010904//EN"
 "http://www.w3.org/TR/2001/REC-SVG-20010904/DTD/svg10.dtd">
<svg version="1.0" xmlns="http://www.w3.org/2000/svg"
 width="4909.000000pt" height="3484.000000pt" viewBox="0 0 4909.000000 3484.000000"
 preserveAspectRatio="xMidYMid meet">

<g transform="translate(0.000000,3484.000000) scale(0.100000,-0.100000)"
fill="#000000" stroke="none">
<path d="M0 17420 l0 -17420 24545 0 24545 0 0 17420 0 17420 -24545 0 -24545
0 0 -17420z m20532 2530 c40 -5 129 -12 198 -14 128 -5 176 -10 214 -22 11 -4
28 -8 36 -9 31 -3 126 -27 146 -36 11 -6 24 -9 30 -8 17 4 230 -42 280 -61 11
-5 44 -11 73 -14 28 -3 61 -12 74 -20 12 -8 33 -17 47 -21 14 -4 41 -18 60
-31 19 -13 78 -42 130 -64 52 -22 107 -47 123 -56 15 -8 37 -17 48 -19 12 -2
33 -12 48 -22 37 -25 72 -43 83 -43 11 0 71 -41 80 -56 4 -7 18 -14 31 -18 13
-3 44 -24 68 -46 24 -23 63 -53 87 -67 23 -13 42 -29 42 -34 0 -5 11 -11 25
-15 14 -3 25 -10 25 -15 0 -5 14 -16 31 -24 16 -9 38 -24 48 -34 10 -10 39
-32 65 -50 26 -18 62 -47 80 -64 17 -18 62 -60 98 -95 37 -34 76 -78 88 -97
12 -19 25 -35 28 -35 4 0 34 -40 67 -90 33 -49 66 -90 73 -90 6 0 12 -4 12 -8
0 -5 14 -23 31 -40 28 -28 36 -32 67 -26 26 5 33 4 27 -5 -4 -7 2 -21 14 -32
12 -11 22 -34 22 -52 3 -49 5 -61 13 -80 5 -10 6 -20 3 -23 -3 -4 3 -16 14
-27 11 -12 17 -27 15 -34 -3 -7 -1 -15 5 -18 11 -7 43 -76 41 -87 -1 -5 5 -8
13 -8 8 0 15 -6 15 -13 0 -8 9 -22 20 -32 11 -10 20 -22 20 -26 0 -5 14 -31
30 -57 17 -27 30 -57 30 -66 0 -9 7 -19 15 -22 8 -4 13 -10 10 -14 -3 -4 2
-14 11 -21 23 -19 40 -58 54 -121 6 -32 16 -58 21 -58 5 0 9 -12 9 -27 0 -14
6 -34 14 -42 8 -9 17 -27 20 -41 5 -23 59 -202 72 -242 4 -10 11 -18 16 -18 5
0 7 -8 3 -19 -3 -12 0 -21 10 -25 8 -3 15 -17 15 -31 0 -14 7 -42 15 -62 17
-40 20 -67 6 -59 -5 3 -5 -11 1 -32 5 -20 11 -45 12 -54 1 -10 5 -21 9 -24 4
-4 7 -21 7 -37 0 -16 6 -43 13 -60 31 -74 39 -107 43 -192 2 -49 6 -102 9
-117 2 -15 1 -29 -3 -32 -5 -3 -6 -38 -4 -78 5 -88 5 -65 -7 -278 -12 -203
-19 -264 -32 -268 -5 -2 -9 -26 -9 -53 0 -27 -4 -57 -9 -67 -5 -9 -15 -55 -21
-102 -7 -47 -16 -89 -20 -95 -4 -5 -10 -23 -14 -40 -17 -77 -50 -171 -62 -178
-7 -4 -11 -14 -8 -21 3 -8 0 -17 -5 -21 -6 -3 -9 -11 -6 -16 4 -5 1 -9 -4 -9
-6 0 -11 -9 -11 -21 0 -11 -6 -33 -14 -47 -7 -15 -24 -54 -37 -87 -12 -33 -25
-62 -28 -65 -7 -6 -36 -55 -55 -95 -9 -16 -24 -43 -35 -59 -11 -17 -18 -33
-15 -38 3 -4 -6 -20 -20 -35 -14 -15 -23 -30 -20 -35 3 -4 0 -8 -5 -8 -6 0
-11 -5 -11 -11 0 -6 -20 -40 -45 -76 -25 -35 -45 -68 -45 -73 0 -5 -12 -22
-26 -39 -14 -17 -23 -31 -19 -31 4 0 -4 -12 -18 -26 -15 -14 -29 -35 -32 -45
-4 -10 -13 -19 -21 -19 -8 0 -18 -10 -23 -22 -5 -13 -28 -42 -52 -64 -24 -23
-51 -51 -59 -63 -8 -11 -20 -21 -27 -21 -7 0 -13 -7 -13 -15 0 -8 -5 -15 -11
-15 -5 0 -7 -4 -4 -10 3 -5 -1 -10 -9 -10 -9 0 -16 -5 -16 -10 0 -6 -27 -37
-60 -69 -33 -32 -60 -66 -60 -75 0 -9 -4 -16 -8 -16 -10 0 -84 -65 -157 -137
-29 -29 -56 -53 -60 -53 -12 0 -107 -71 -144 -107 -19 -18 -40 -33 -46 -33 -7
0 -18 -7 -25 -15 -7 -8 -39 -29 -72 -45 -33 -17 -67 -37 -75 -45 -8 -8 -18
-15 -23 -15 -5 0 -17 -9 -27 -19 -10 -10 -38 -26 -63 -34 -25 -8 -65 -26 -90
-40 -131 -72 -217 -111 -237 -108 -7 1 -13 -3 -13 -9 0 -5 -8 -10 -17 -10 -21
0 -109 -31 -168 -59 -75 -35 -90 -41 -110 -40 -40 1 -110 -13 -283 -57 -112
-29 -206 -47 -255 -49 -43 -3 -97 -7 -120 -11 -23 -3 -166 -8 -317 -10 -209
-3 -305 -1 -400 11 -235 29 -335 47 -370 66 -19 10 -80 29 -135 43 -94 23
-194 55 -240 76 -11 5 -31 12 -45 15 -14 4 -52 19 -85 35 -33 15 -96 42 -140
61 -44 18 -82 36 -85 40 -12 18 -115 82 -167 104 -32 14 -62 31 -68 38 -5 7
-27 23 -47 36 -21 12 -38 27 -38 32 0 4 -14 16 -32 25 -17 9 -45 29 -62 45
-17 16 -37 29 -45 29 -7 0 -28 12 -45 28 -18 15 -47 38 -66 52 -44 33 -70 58
-70 69 0 4 -21 25 -47 45 -67 51 -263 238 -263 251 -1 5 -18 28 -40 49 -21 22
-44 52 -51 68 -6 15 -15 28 -20 28 -5 0 -6 6 -3 14 4 9 -9 24 -35 42 -23 15
-41 31 -41 36 0 9 -2 13 -50 69 -16 20 -30 40 -30 44 0 3 -6 12 -12 20 -38 40
-118 160 -118 176 0 5 -18 32 -40 60 -22 28 -40 57 -40 65 0 8 -4 14 -9 14 -5
0 -18 19 -29 43 -57 123 -72 157 -72 166 0 6 -3 11 -7 11 -5 0 -16 21 -27 48
-10 26 -24 61 -31 77 -7 17 -18 46 -23 65 -11 36 -47 140 -62 175 -25 62 -40
114 -40 142 0 18 -6 52 -13 75 -22 70 -46 177 -62 276 -8 51 -17 97 -20 102
-3 5 -5 123 -4 262 0 139 0 287 -1 328 -1 46 5 92 14 118 14 38 20 81 31 212
1 14 4 32 8 40 3 8 11 49 18 90 6 41 17 91 24 110 21 59 33 103 40 145 3 22
17 63 30 90 12 28 42 104 65 170 23 66 53 142 66 170 14 27 29 68 35 89 6 22
22 54 35 71 13 18 24 35 24 39 0 4 9 16 20 28 10 12 17 24 15 28 -2 4 9 22 25
41 16 19 29 38 30 42 0 9 70 119 81 127 6 5 47 61 87 120 9 14 21 28 27 32 5
3 28 32 50 64 22 32 73 92 113 134 76 80 108 120 96 120 -9 0 38 46 52 51 7 2
60 49 119 104 59 55 119 106 132 113 14 8 52 35 85 62 33 27 71 51 85 55 29 7
101 52 124 77 9 10 21 18 26 18 5 0 22 13 37 29 24 25 98 58 120 52 4 -1 19 5
32 14 13 8 48 24 77 35 58 22 90 49 106 93 11 29 17 31 99 27 34 -1 61 4 76
13 13 9 40 19 60 22 20 4 39 11 42 16 3 5 9 7 14 4 17 -10 166 33 270 77 41
18 123 38 160 39 8 0 53 7 100 15 187 31 448 42 582 24z m-5007 -150 c20 -11
42 -20 51 -20 16 0 90 -30 137 -56 16 -9 39 -14 53 -11 15 2 24 0 24 -8 0 -7
16 -30 35 -51 19 -21 35 -42 35 -46 0 -12 129 -138 141 -138 6 0 6 -8 -1 -20
-8 -15 -8 -20 1 -20 6 0 9 -6 6 -13 -3 -8 6 -27 19 -42 28 -32 29 -36 10 -29
-8 3 -16 -3 -19 -16 -4 -16 -2 -20 9 -16 12 5 15 -3 13 -37 -1 -23 2 -49 5
-58 4 -9 -1 -22 -14 -34 -21 -19 -29 -8 -9 12 13 13 3 36 -12 28 -5 -4 -9 -2
-9 4 0 7 -9 6 -26 -1 -22 -10 -28 -10 -40 6 -18 26 -80 14 -90 -17 -4 -12 -16
-30 -27 -39 -17 -15 -18 -20 -6 -35 42 -52 53 -58 111 -59 32 0 61 -4 65 -8 4
-4 13 8 19 26 10 31 16 34 57 29 7 -1 5 -7 -7 -16 -18 -13 -18 -14 3 -12 11 1
21 6 21 11 0 5 3 7 6 4 3 -4 1 -16 -5 -27 -9 -17 -8 -24 8 -40 19 -19 19 -21
3 -30 -10 -6 -12 -11 -4 -11 9 0 8 -6 -3 -24 -11 -16 -13 -26 -6 -31 18 -11
12 -23 -14 -29 -28 -7 -34 -26 -9 -26 24 0 11 -23 -16 -27 -26 -4 -40 -19 -40
-45 0 -9 -13 -22 -30 -30 -16 -7 -30 -16 -30 -20 0 -12 28 -10 35 2 9 15 43
12 73 -7 15 -9 28 -17 28 -17 1 -1 5 -12 8 -26 5 -17 4 -21 -2 -11 -11 15 -47
7 -38 -8 3 -5 -1 -12 -10 -15 -8 -3 -14 -12 -12 -20 2 -8 -1 -14 -7 -13 -5 1
-9 4 -8 7 1 3 -9 7 -22 8 -22 2 -22 0 -12 -28 10 -27 15 -30 39 -24 18 3 28 1
28 -6 0 -6 10 -15 23 -20 20 -8 20 -9 2 -10 -20 -1 -19 -1 1 -19 17 -13 20
-22 12 -35 -7 -12 -7 -21 1 -29 6 -6 11 -19 11 -28 0 -10 6 -19 13 -22 9 -3 7
-10 -6 -25 -10 -11 -14 -23 -9 -26 19 -11 37 -201 21 -212 -5 -3 -7 -15 -3
-28 3 -12 0 -35 -7 -51 -7 -17 -11 -36 -10 -43 1 -8 -3 -20 -10 -28 -7 -9 -8
-14 -1 -14 6 0 14 -9 17 -20 4 -11 11 -18 16 -15 19 12 8 -14 -12 -28 -14 -11
-17 -17 -9 -22 7 -4 16 -2 20 5 5 8 8 -1 7 -22 -1 -28 -4 -35 -16 -30 -13 5
-13 2 2 -12 20 -20 23 -52 5 -59 -10 -3 -10 -7 0 -19 10 -13 10 -17 0 -20 -10
-4 -10 -8 -2 -19 6 -8 14 -22 17 -31 4 -13 2 -15 -10 -11 -12 5 -14 3 -7 -8 5
-8 10 -29 11 -48 1 -19 7 -37 12 -40 6 -4 13 -26 16 -49 4 -33 1 -44 -11 -49
-15 -5 -15 -7 0 -15 16 -9 23 -38 9 -38 -8 0 -7 -117 1 -229 3 -37 1 -70 -5
-77 -7 -9 -6 -19 3 -33 7 -11 9 -24 5 -28 -5 -4 -12 -1 -17 7 -16 25 -11 -5 7
-40 12 -24 13 -35 5 -38 -18 -6 -14 -20 8 -27 23 -7 27 -25 5 -25 -15 0 -14
-19 0 -67 2 -7 0 -15 -6 -19 -6 -4 -4 -15 6 -30 9 -14 13 -29 9 -35 -12 -19
-7 -188 6 -204 10 -12 10 -18 0 -30 -7 -8 -10 -25 -6 -40 5 -18 2 -25 -9 -25
-8 0 -15 -4 -15 -10 0 -5 4 -10 10 -10 5 0 10 -15 9 -32 0 -18 2 -44 5 -58 3
-14 7 -40 10 -59 3 -18 7 -35 9 -38 3 -2 1 -18 -3 -34 -7 -22 -5 -29 6 -29 18
0 18 -10 -3 -39 -15 -22 -15 -25 2 -37 10 -8 15 -20 11 -29 -3 -9 1 -29 9 -45
14 -26 14 -29 0 -24 -23 9 -18 -4 14 -35 22 -22 26 -32 19 -45 -6 -10 -8 -26
-5 -37 3 -10 2 -19 -3 -19 -4 0 -8 -10 -8 -22 0 -26 -10 -103 -12 -103 -1 0
-4 -24 -5 -52 -2 -29 0 -53 4 -53 4 0 2 -28 -5 -62 -7 -35 -9 -67 -4 -73 10
-12 1 -65 -11 -65 -4 0 -2 -12 6 -26 14 -28 10 -89 -8 -112 -8 -10 -7 -16 2
-22 8 -4 10 -13 7 -19 -4 -6 -3 -11 3 -11 6 0 8 -7 5 -15 -4 -8 -2 -21 4 -28
10 -13 24 -137 27 -253 1 -38 7 -79 13 -91 6 -11 9 -23 7 -25 -3 -3 -7 -37
-10 -76 -2 -40 -6 -75 -8 -79 -2 -5 -3 -28 -2 -53 1 -25 3 -90 5 -145 2 -55 8
-106 14 -114 8 -11 8 -15 -2 -18 -6 -3 -10 -9 -6 -14 3 -5 7 -87 9 -182 1 -94
3 -172 4 -172 1 0 4 -25 6 -55 2 -30 6 -76 9 -102 3 -26 0 -50 -5 -54 -6 -4
-6 -11 1 -19 6 -8 7 -16 2 -19 -5 -3 -7 -38 -4 -78 13 -193 5 -749 -12 -908
-8 -67 -17 -214 -16 -255 0 -17 -4 -55 -10 -85 -6 -30 -13 -84 -15 -120 -4
-80 -4 -65 -1 -191 3 -114 -8 -220 -26 -257 -8 -15 -8 -26 -1 -33 11 -11 -5
-89 -20 -100 -5 -4 -4 -9 1 -13 12 -7 12 -126 1 -126 -4 0 -3 -17 2 -37 4 -21
4 -55 -1 -77 -5 -22 -5 -47 -1 -55 5 -8 3 -28 -5 -47 -17 -41 -17 -47 -2 -38
7 5 8 3 2 -7 -4 -8 -10 -41 -11 -74 -1 -33 -5 -71 -9 -85 -3 -14 -8 -38 -11
-55 -3 -16 -8 -49 -12 -71 -5 -23 -4 -48 0 -56 4 -8 3 -32 -2 -54 -6 -21 -15
-57 -20 -79 -6 -21 -14 -44 -20 -51 -5 -6 -12 -39 -15 -73 -4 -33 -11 -61 -15
-61 -5 0 -9 -7 -9 -15 0 -9 -7 -30 -16 -48 -10 -17 -18 -47 -19 -65 -1 -19 -8
-38 -15 -42 -7 -4 -14 -18 -15 -31 -4 -36 -36 -110 -45 -104 -9 5 -24 -30 -41
-95 -6 -25 -15 -50 -21 -57 -5 -7 -7 -17 -3 -22 3 -6 -1 -22 -10 -35 -9 -14
-14 -30 -11 -35 4 -6 -3 -15 -14 -21 -12 -6 -19 -17 -17 -23 4 -12 -65 -153
-84 -171 -5 -6 -9 -18 -9 -28 0 -10 -4 -18 -10 -18 -5 0 -10 -6 -10 -13 0 -14
-23 -48 -56 -81 -11 -12 -27 -36 -35 -53 -8 -18 -17 -33 -21 -33 -4 0 -31 -25
-60 -55 -28 -30 -58 -55 -65 -55 -7 0 -15 -11 -19 -24 -4 -15 -17 -29 -35 -35
-21 -7 -29 -16 -27 -28 2 -11 -3 -18 -12 -18 -8 0 -19 -6 -23 -12 -4 -7 -17
-13 -27 -13 -21 0 -42 -30 -37 -52 2 -7 2 -10 0 -5 -8 13 -33 7 -33 -8 0 -8
-4 -15 -9 -15 -5 0 -12 -12 -15 -26 -5 -17 -12 -24 -21 -20 -10 3 -17 -3 -21
-19 -5 -20 -13 -25 -38 -25 -21 0 -27 -3 -17 -9 16 -10 6 -31 -15 -31 -8 0
-13 -6 -12 -12 2 -8 -6 -12 -19 -11 -16 2 -21 -2 -17 -12 4 -9 0 -15 -10 -15
-10 0 -16 -9 -16 -23 0 -17 -9 -27 -35 -37 -19 -8 -35 -20 -35 -27 0 -7 -3
-13 -7 -12 -16 2 -53 -14 -53 -23 0 -6 -6 -8 -14 -5 -8 3 -19 -5 -26 -19 -8
-13 -22 -24 -32 -24 -10 0 -18 -6 -16 -13 2 -6 0 -13 -5 -14 -4 -2 -16 -12
-27 -23 -11 -11 -28 -20 -37 -21 -41 -1 -68 -11 -76 -25 -7 -12 -12 -13 -23
-3 -11 9 -14 7 -14 -10 0 -15 -6 -21 -21 -21 -23 0 -72 -34 -62 -44 3 -3 -1
-6 -9 -6 -9 0 -19 -7 -22 -16 -4 -9 -9 -14 -12 -11 -4 3 -17 -7 -31 -24 -14
-16 -28 -27 -32 -24 -10 6 -74 -17 -83 -30 -5 -6 -11 -6 -18 1 -9 9 -24 5 -60
-12 -27 -13 -57 -21 -66 -17 -10 4 -20 0 -26 -11 -5 -9 -13 -14 -19 -11 -5 4
-9 -5 -9 -19 0 -14 -4 -28 -10 -31 -5 -3 -10 3 -10 15 0 12 -4 18 -10 15 -5
-3 -10 -16 -10 -28 0 -16 -3 -18 -9 -8 -6 9 -14 10 -27 3 -11 -5 -25 -7 -32
-5 -7 3 -20 -3 -27 -13 -11 -15 -14 -16 -15 -4 0 13 -1 13 -10 0 -5 -8 -10
-12 -10 -7 0 4 -18 -11 -39 -34 -22 -22 -43 -40 -48 -41 -10 -1 -27 -6 -50
-15 -31 -11 -48 -13 -63 -6 -24 10 -64 2 -73 -14 -7 -10 -12 -11 -22 -3 -10 8
-16 7 -24 -7 -9 -16 -12 -16 -21 -3 -8 13 -13 13 -40 -2 -17 -10 -32 -13 -35
-7 -4 5 -22 9 -41 9 -21 0 -33 -4 -29 -10 3 -6 -5 -10 -19 -10 -13 0 -31 -3
-40 -6 -12 -4 -16 0 -16 16 0 12 -4 18 -11 15 -6 -4 -8 -13 -5 -20 5 -13 -12
-35 -26 -35 -14 0 -1 48 22 80 28 39 12 39 -23 -1 -29 -34 -34 -49 -14 -49 8
0 8 -3 -2 -9 -8 -5 -21 -7 -28 -4 -8 3 -24 1 -36 -5 -46 -22 -98 -33 -127 -27
-17 4 -30 2 -30 -3 0 -5 -7 -13 -16 -16 -13 -5 -15 -2 -11 14 3 11 1 20 -4 20
-5 0 -9 -4 -9 -10 0 -9 -9 -11 -77 -10 -18 0 -33 -5 -33 -11 0 -6 -8 -8 -20
-4 -11 3 -20 2 -20 -3 0 -6 -8 -8 -19 -5 -10 2 -42 -2 -71 -11 -29 -9 -62 -14
-74 -11 -22 5 -101 16 -126 17 -8 0 -19 4 -25 8 -5 5 -42 8 -81 8 -39 0 -88 5
-110 11 -21 5 -55 10 -74 9 -36 -1 -40 0 -100 19 -19 6 -74 16 -123 23 -61 8
-98 19 -123 36 -19 13 -39 24 -44 24 -10 0 -14 15 -11 34 1 5 -8 6 -20 3 -12
-3 -35 1 -51 9 -15 8 -28 11 -28 8 0 -4 -11 3 -25 16 -14 13 -25 29 -25 37 0
20 -48 16 -53 -4 -4 -14 -5 -12 -6 5 0 12 4 22 9 22 6 0 10 7 10 15 0 8 -4 15
-10 15 -5 0 -10 -4 -10 -9 0 -12 -49 -20 -56 -10 -3 5 2 9 10 9 9 0 16 5 16
10 0 6 -13 10 -30 10 -16 0 -30 5 -30 10 0 6 -3 9 -7 8 -10 -2 -41 10 -76 29
-16 8 -31 13 -34 10 -8 -9 -82 23 -131 55 -24 15 -46 28 -49 28 -11 0 -32 35
-33 53 0 10 -8 17 -20 17 -10 0 -23 6 -27 13 -4 7 -26 21 -48 32 -22 11 -42
22 -45 25 -3 3 -21 17 -40 30 -37 26 -40 28 -97 78 -21 18 -56 48 -78 67 -22
19 -54 42 -72 52 -17 9 -37 27 -44 40 -7 12 -16 20 -20 17 -5 -2 -30 18 -57
46 -26 27 -53 50 -59 50 -18 0 -93 60 -93 74 0 8 -20 31 -45 52 -25 20 -45 42
-45 49 0 7 -7 18 -16 26 -20 16 -84 113 -84 127 0 6 -9 13 -19 17 -11 3 -23
15 -26 25 -3 11 -24 36 -46 57 -21 20 -39 41 -39 45 0 5 -25 42 -55 83 -30 40
-55 76 -55 79 0 3 -9 16 -20 28 -86 95 -147 202 -164 284 -1 7 -8 19 -15 28
-7 8 -10 20 -6 26 4 6 1 17 -5 25 -7 8 -14 29 -16 47 -9 67 -10 334 -1 373 5
22 11 51 13 65 18 99 101 244 178 309 15 14 43 40 61 60 58 61 139 112 291
184 23 10 64 21 90 23 27 2 71 6 98 8 50 6 130 -14 231 -56 43 -17 109 -35
152 -40 7 -1 14 -7 17 -15 3 -7 14 -13 25 -13 11 0 23 -4 26 -10 3 -5 17 -10
30 -10 14 0 29 -8 35 -19 5 -11 24 -35 41 -53 17 -18 42 -50 56 -72 23 -35 48
-65 111 -131 12 -13 22 -27 22 -31 0 -4 7 -15 15 -24 13 -15 43 -106 50 -150
7 -50 19 -81 36 -90 10 -6 19 -19 19 -29 0 -24 56 -100 80 -109 11 -4 28 -21
38 -38 15 -27 44 -55 180 -175 19 -16 36 -29 38 -29 3 0 20 -16 39 -34 19 -19
56 -47 82 -62 27 -15 64 -40 84 -56 20 -15 42 -28 48 -28 6 0 11 -3 11 -8 0
-4 24 -17 53 -30 28 -13 60 -27 69 -32 10 -6 22 -10 27 -10 5 0 22 -5 38 -12
15 -6 35 -12 43 -13 8 -1 46 -16 83 -33 37 -18 72 -30 78 -26 5 3 15 1 22 -4
7 -5 37 -13 67 -17 30 -4 61 -12 68 -18 8 -6 44 -13 80 -15 37 -2 100 -6 139
-8 40 -3 94 -1 120 5 65 15 86 19 173 26 103 10 139 15 270 45 84 19 272 113
335 168 19 18 40 32 45 32 5 0 15 6 22 13 7 8 32 26 55 40 35 22 129 102 155
132 41 47 60 74 70 97 7 14 25 34 40 43 76 45 207 258 259 423 12 37 30 83 40
103 18 37 55 198 65 287 3 26 9 76 14 112 5 36 10 92 10 125 0 33 5 78 10 100
5 22 12 92 15 155 4 63 8 121 11 129 3 8 7 71 10 140 5 117 15 205 27 257 3
12 8 79 11 149 4 70 8 131 11 135 2 4 7 65 10 136 4 71 11 154 16 184 5 31 9
96 8 145 0 50 4 102 9 116 6 16 7 43 1 73 -10 56 -3 121 18 154 15 24 9 117
-7 107 -4 -3 -13 2 -20 10 -20 24 -82 15 -110 -15 -3 -3 -32 -19 -65 -35 -33
-16 -69 -39 -80 -52 -21 -23 -130 -81 -167 -88 -12 -3 -26 -11 -30 -20 -5 -8
-17 -15 -27 -15 -10 0 -21 -3 -25 -7 -4 -4 -19 -9 -33 -11 -15 -2 -38 -11 -52
-20 -14 -10 -37 -23 -51 -30 -42 -20 -209 -72 -234 -72 -23 0 -83 -21 -119
-40 -22 -13 -162 -40 -204 -40 -18 0 -33 -5 -33 -11 0 -8 -4 -8 -14 0 -11 9
-20 10 -36 1 -23 -13 -64 -20 -133 -25 -26 -2 -62 -8 -80 -14 -61 -19 -208
-28 -269 -15 -14 3 -29 1 -31 -3 -5 -8 -92 -10 -92 -3 0 1 -29 3 -64 4 -41 2
-66 7 -69 14 -3 10 -29 11 -104 6 -73 -5 -102 -4 -107 5 -7 11 -47 23 -83 25
-10 0 -18 4 -18 9 0 5 -7 6 -16 3 -9 -4 -29 1 -43 11 -14 9 -33 17 -41 18 -30
1 -90 17 -90 24 0 3 -19 6 -42 5 -64 -1 -140 30 -131 53 5 13 2 13 -14 4 -16
-8 -24 -7 -33 4 -7 8 -21 15 -32 15 -12 0 -18 6 -16 16 2 14 -7 17 -47 20 -27
1 -70 7 -94 12 -24 6 -50 8 -57 5 -8 -3 -21 0 -29 7 -8 7 -21 10 -30 7 -8 -4
-17 -2 -19 2 -3 5 -20 11 -37 15 -17 3 -45 16 -62 28 -17 12 -37 23 -43 24 -7
1 -34 17 -61 35 -26 19 -52 33 -56 31 -4 -1 -10 5 -13 13 -4 8 -12 15 -20 15
-8 0 -14 4 -14 9 0 4 -21 11 -46 15 -31 4 -63 18 -97 43 -58 43 -80 57 -123
77 -17 8 -43 31 -58 50 -15 20 -30 35 -34 34 -12 -4 -82 34 -82 44 0 14 -133
138 -149 138 -7 0 -53 41 -102 90 -49 50 -91 90 -94 90 -2 0 -21 16 -41 35
-19 19 -40 35 -45 35 -5 0 -9 4 -9 10 0 11 -22 40 -67 87 -18 19 -33 36 -33
39 0 2 -25 35 -55 71 -30 37 -55 73 -55 80 0 7 -4 13 -9 13 -5 0 -13 11 -18
24 -8 23 -50 81 -85 118 -10 9 -20 29 -24 43 -3 14 -17 34 -30 44 -13 10 -24
24 -24 30 0 6 -5 11 -11 11 -5 0 -7 5 -4 10 8 12 -9 67 -41 135 -13 28 -24 54
-24 58 0 5 -15 34 -33 65 -18 31 -39 73 -46 92 -8 19 -28 67 -46 105 -41 92
-52 123 -78 225 -12 47 -26 88 -30 91 -5 4 -13 51 -17 105 -5 55 -18 133 -30
174 -17 60 -21 100 -20 201 1 69 -4 156 -11 195 -17 106 -13 397 7 464 9 30
20 87 24 125 10 88 23 145 49 215 11 30 22 71 25 90 18 110 45 209 65 235 5 5
12 28 16 50 4 22 17 63 30 90 12 28 25 61 29 75 8 27 12 37 49 120 14 30 28
66 32 80 4 14 16 41 26 60 10 19 32 64 49 100 17 36 43 88 58 115 35 65 278
429 297 445 8 7 15 17 15 23 0 6 11 23 25 37 13 14 28 40 31 58 5 27 3 32 -12
33 -11 0 4 7 31 15 42 13 68 33 162 127 130 130 239 230 258 237 15 6 90 65
126 100 14 14 39 31 54 38 16 7 47 27 68 45 42 32 78 55 137 83 19 9 46 24 60
34 73 50 294 152 413 190 22 7 51 18 65 26 15 8 34 14 42 14 9 0 20 4 25 8 11
9 122 44 152 47 10 1 25 4 33 7 8 4 40 12 70 19 30 6 61 16 67 21 7 6 21 8 31
6 11 -3 41 -2 68 3 67 11 404 39 478 39 82 0 113 4 122 13 12 11 72 8 159 -8
43 -9 84 -14 91 -11 6 2 60 0 120 -6 60 -5 132 -11 159 -13 53 -4 113 -17 185
-42 25 -8 67 -19 94 -24 27 -5 54 -13 60 -19 5 -5 18 -10 28 -10 10 0 18 -4
18 -10 0 -5 8 -10 18 -10 9 0 29 -7 45 -14 16 -9 50 -14 83 -13 50 2 57 -1 76
-25 11 -16 24 -28 29 -28 5 0 33 -12 62 -26 28 -14 71 -32 94 -40 23 -8 66
-30 95 -49 29 -19 58 -35 65 -35 7 0 13 -4 13 -8 0 -15 71 -31 95 -22 24 9
115 110 115 129 0 6 4 11 10 11 5 0 18 17 29 38 23 44 118 152 134 152 6 0 18
6 26 14 14 12 46 32 107 64 42 23 91 41 129 47 22 4 47 11 56 16 9 4 74 11
145 15 71 3 131 8 133 10 6 6 8 6 46 -16z m475 -602 c0 -11 -41 -10 -59 1 -10
6 -2 9 22 8 21 0 37 -5 37 -9z m-140 -53 c14 -16 10 -18 -14 -9 -9 3 -16 10
-16 15 0 14 16 11 30 -6z m11245 -18215 c0 -18 -16 -22 -35 -10 -13 9 -13 11
0 20 19 12 35 8 35 -10z"/>
<path d="M20190 18364 c-41 -8 -83 -15 -92 -15 -10 0 -20 -4 -23 -10 -4 -5
-15 -9 -25 -9 -11 0 -36 -7 -57 -16 -65 -29 -77 -33 -132 -48 -29 -9 -60 -21
-68 -27 -7 -7 -16 -9 -19 -6 -3 2 -17 -6 -31 -19 -14 -13 -29 -24 -34 -24 -4
0 -42 -16 -83 -35 -42 -19 -78 -35 -81 -35 -3 0 -32 -18 -64 -40 -32 -22 -61
-40 -64 -40 -4 0 -22 -16 -41 -35 -20 -19 -39 -35 -43 -35 -4 -1 -24 -19 -43
-41 -19 -22 -47 -52 -61 -67 -15 -15 -30 -37 -34 -49 -3 -13 -11 -23 -16 -23
-5 0 -9 -5 -9 -11 0 -6 -15 -28 -32 -49 -18 -21 -42 -61 -53 -90 -11 -29 -26
-55 -32 -57 -7 -3 -13 -11 -13 -19 0 -7 -6 -17 -13 -21 -6 -4 -19 -21 -27 -38
-8 -16 -19 -36 -24 -44 -6 -7 -11 -19 -12 -26 -4 -25 -26 -90 -35 -101 -5 -6
-13 -33 -18 -60 -5 -27 -15 -62 -22 -79 -7 -16 -11 -34 -11 -38 1 -4 -5 -21
-14 -38 -9 -17 -18 -65 -21 -105 -3 -41 -9 -77 -13 -79 -4 -2 -4 -26 0 -52 4
-26 5 -52 2 -57 -14 -25 -35 -336 -22 -336 4 0 10 -21 13 -47 13 -128 55 -332
77 -373 10 -19 29 -55 41 -80 13 -25 29 -51 36 -58 7 -7 13 -22 13 -32 0 -10
4 -21 9 -24 5 -4 17 -31 26 -61 10 -30 22 -55 26 -55 5 0 9 -4 9 -10 0 -10 29
-47 65 -84 11 -12 45 -50 75 -86 29 -36 69 -80 87 -99 18 -18 33 -40 33 -47 0
-8 4 -14 8 -14 5 0 24 -13 42 -30 18 -16 36 -30 39 -30 3 0 26 -18 51 -40 25
-22 75 -61 112 -86 37 -24 70 -50 74 -55 3 -6 40 -26 81 -45 41 -19 83 -43 94
-53 11 -10 39 -26 62 -36 23 -9 50 -21 59 -26 10 -5 27 -9 38 -9 11 0 20 -4
20 -10 0 -5 9 -10 21 -10 11 0 28 -4 38 -10 29 -15 70 -21 163 -25 47 -2 108
-10 135 -18 47 -14 220 -16 240 -4 5 3 61 9 124 12 62 3 116 9 119 14 3 4 14
7 25 8 35 0 177 33 204 47 28 15 93 42 184 76 31 13 75 35 97 51 22 16 43 29
47 29 5 0 24 16 43 35 19 19 39 35 44 35 16 0 166 104 206 142 44 42 192 205
217 238 24 33 38 56 64 108 13 23 26 42 30 42 7 0 51 87 80 155 15 37 29 100
29 134 0 35 29 142 41 151 4 3 10 54 14 115 5 64 13 119 21 131 8 11 14 31 14
45 0 13 2 48 5 78 6 60 -20 293 -36 322 -5 11 -7 24 -4 29 14 23 -52 262 -103
370 -22 47 -46 100 -54 118 -7 17 -16 32 -20 32 -5 0 -8 11 -8 24 0 14 -7 31
-15 40 -8 8 -15 24 -15 35 0 27 -81 160 -97 161 -7 0 -13 3 -13 8 0 4 -16 24
-35 45 -19 21 -36 41 -37 45 -2 4 -8 6 -15 6 -6 -1 -17 10 -23 25 -6 14 -25
35 -43 46 -17 11 -33 28 -35 38 -7 34 -75 91 -134 113 -10 3 -18 10 -18 15 0
5 -6 9 -14 9 -8 0 -17 7 -20 16 -3 8 -10 13 -15 10 -5 -4 -18 4 -28 16 -10 13
-39 34 -65 48 -27 14 -48 28 -48 32 0 4 -17 15 -37 24 -117 52 -162 75 -166
86 -3 10 -7 10 -17 1 -10 -9 -18 -9 -34 2 -11 7 -39 17 -61 20 -22 4 -78 18
-125 32 -78 22 -106 25 -345 28 -203 3 -276 1 -335 -11z"/>
<path d="M13040 19275 c0 -8 4 -15 10 -15 5 0 7 7 4 15 -4 8 -8 15 -10 15 -2
0 -4 -7 -4 -15z"/>
<path d="M13080 19266 c0 -8 6 -16 13 -19 6 -3 -17 -5 -51 -5 -35 0 -66 -3
-69 -5 -3 -3 -6 -24 -6 -45 l-2 -40 -32 24 c-26 20 -33 22 -33 10 0 -9 4 -16
9 -16 18 0 41 -31 41 -55 0 -29 -19 -43 -31 -24 -8 12 -12 11 -23 -4 -8 -10
-17 -18 -20 -18 -32 4 -56 -1 -51 -9 4 -6 16 -8 27 -4 17 5 20 3 15 -11 -4 -9
-7 -21 -7 -26 0 -5 -6 -8 -12 -6 -7 1 -12 -4 -10 -12 2 -9 -3 -11 -15 -6 -32
12 -65 16 -59 6 3 -5 -5 -8 -18 -7 -15 0 -23 7 -21 16 1 8 10 14 19 14 9 -1
16 6 16 16 0 10 6 21 13 23 9 4 8 6 -2 6 -8 1 -20 -7 -28 -16 -13 -17 -13 -17
-11 0 2 14 -9 23 -44 37 -26 10 -50 15 -53 12 -3 -4 -3 1 1 11 4 13 1 17 -14
17 -12 0 -24 -5 -27 -11 -4 -6 -24 -9 -45 -8 -21 2 -45 -3 -53 -9 -10 -8 -16
-9 -19 -3 -2 7 -14 5 -32 -4 -39 -20 -97 -20 -90 0 4 10 0 15 -15 15 -12 0
-21 -5 -21 -11 0 -8 -6 -7 -17 2 -15 12 -16 12 -10 -3 4 -11 2 -18 -6 -18 -8
0 -7 -4 3 -11 12 -8 10 -9 -9 -7 -14 2 -25 10 -27 21 -4 28 -13 32 -27 13 -12
-16 -17 -17 -36 -6 -13 6 -32 9 -43 7 -11 -3 -31 -2 -44 3 -15 6 -24 6 -24 0
0 -6 -15 -10 -34 -10 -43 0 -53 -13 -21 -28 30 -14 27 -46 -6 -50 -24 -4 -24
-3 -4 12 19 15 19 15 -12 16 -25 0 -38 -7 -55 -30 -12 -16 -27 -30 -32 -30 -6
0 -17 -13 -24 -30 -13 -29 -42 -42 -42 -18 0 6 -3 8 -6 5 -4 -4 -1 -13 6 -22
10 -12 10 -15 -4 -15 -9 0 -16 5 -16 11 0 8 -5 8 -15 -1 -8 -7 -15 -27 -15
-44 0 -17 -4 -26 -8 -19 -4 6 -20 15 -36 19 -22 5 -28 4 -24 -7 3 -8 10 -15
16 -15 26 -3 26 -6 2 -13 -14 -4 -26 -13 -26 -21 -1 -8 -2 -21 -3 -28 -1 -8
-9 -10 -23 -7 -13 3 -36 1 -53 -4 -21 -7 -24 -10 -10 -10 16 -1 17 -3 6 -10
-8 -5 -20 -7 -28 -4 -17 6 -17 -14 0 -20 17 -8 -12 -27 -30 -20 -7 3 -13 0
-13 -5 0 -6 -6 -12 -12 -15 -7 -2 -5 -3 5 -2 9 2 17 -1 17 -5 0 -5 9 -12 21
-15 21 -7 22 -42 1 -38 -19 5 -14 -15 7 -27 27 -14 31 -13 31 7 0 15 1 15 18
0 23 -21 27 -21 46 -1 15 14 16 14 16 -5 0 -14 6 -21 20 -21 18 0 19 -3 8 -20
-8 -12 -19 -18 -29 -15 -12 4 -19 -3 -24 -22 -6 -21 -9 -24 -12 -10 -5 21 -21
21 -48 1 -18 -13 -20 -13 -27 3 -6 16 -7 16 -7 1 -1 -11 -7 -15 -21 -11 -11 3
-20 0 -20 -6 0 -6 4 -11 9 -11 21 0 42 -33 37 -56 -4 -13 -5 -24 -4 -24 19 1
83 31 83 38 0 6 3 14 8 18 4 4 7 -2 7 -14 0 -12 -4 -22 -10 -22 -5 0 -10 -5
-10 -11 0 -7 12 -9 35 -5 28 6 35 4 35 -9 0 -18 4 -19 29 -3 14 9 23 8 42 -5
13 -10 34 -17 46 -17 13 0 23 -4 23 -9 0 -6 9 -9 20 -8 11 1 20 7 20 13 0 7 7
14 15 18 8 3 15 12 15 20 0 8 7 19 17 24 20 11 10 44 -11 36 -8 -3 -17 -1 -21
5 -3 6 4 15 17 20 18 6 28 2 51 -21 34 -33 42 -32 28 5 l-10 25 31 -15 c20
-10 28 -21 25 -32 -3 -14 1 -16 25 -13 34 5 48 22 19 22 -12 0 -21 5 -21 11 0
6 7 8 16 5 18 -7 84 58 84 82 0 24 -29 11 -35 -16 -4 -18 -13 -28 -25 -29 -11
-1 -20 2 -20 8 0 5 4 9 9 9 5 0 19 20 31 45 17 35 26 44 40 40 12 -4 22 1 28
11 6 11 11 13 16 5 11 -18 26 -13 36 12 l9 22 0 -23 c1 -12 7 -25 15 -28 8 -3
12 -14 9 -27 -3 -15 -2 -18 5 -9 7 10 11 10 21 -2 12 -14 19 -13 84 10 23 9
22 34 -3 34 -11 0 -20 4 -20 10 0 5 -7 7 -15 4 -11 -5 -13 -2 -9 10 6 15 -9
20 -54 19 -10 -1 -10 2 0 14 9 12 9 16 -3 24 -22 14 -29 11 -29 -13 0 -17 -3
-19 -12 -10 -10 10 -10 17 0 32 10 16 10 20 -1 20 -7 0 -18 -5 -25 -12 -10
-10 -18 -6 -39 16 -22 25 -23 27 -6 22 17 -6 20 -3 15 19 -2 14 -8 28 -13 31
-5 3 -9 11 -9 17 0 7 5 4 11 -6 8 -13 14 -15 30 -7 10 6 19 19 19 29 0 10 7
25 17 32 15 13 16 11 10 -16 -3 -16 -4 -24 -1 -17 3 6 12 12 20 12 9 0 13 4 9
9 -3 5 9 11 27 13 21 2 33 9 34 18 2 36 4 43 12 36 4 -4 8 -12 8 -17 1 -5 2
-13 3 -19 2 -17 21 -11 21 6 0 10 6 14 14 11 10 -4 12 0 8 15 -4 18 -3 19 19
8 17 -10 24 -10 27 -1 8 24 29 11 24 -15 -3 -18 -1 -25 7 -23 7 3 12 8 11 13
-1 5 4 12 10 16 17 10 70 -18 70 -38 0 -12 -3 -13 -12 -4 -7 7 -17 12 -22 12
-6 0 -4 -5 4 -10 22 -14 -1 -45 -33 -45 -14 1 -24 -1 -22 -3 2 -3 0 -13 -5
-23 -8 -14 -5 -19 13 -25 l22 -8 -25 -7 c-14 -4 -43 -7 -64 -8 -22 -1 -37 -3
-35 -6 10 -9 122 -16 128 -8 3 5 25 8 49 5 33 -3 42 -8 42 -22 0 -11 5 -22 10
-25 6 -4 9 -1 8 5 -3 13 49 57 57 48 3 -3 -4 -17 -16 -32 -12 -15 -18 -30 -14
-34 4 -4 10 -1 12 6 3 6 11 12 18 12 7 0 15 8 18 18 2 11 14 21 25 24 18 5 19
4 9 -13 -10 -16 -9 -21 2 -28 8 -5 11 -16 7 -26 -5 -13 -2 -16 10 -11 8 3 20
6 25 6 5 0 9 5 9 10 0 6 -7 10 -15 10 -8 0 -15 5 -15 10 0 6 7 10 15 10 8 0
15 5 15 11 0 6 9 9 20 6 13 -3 20 0 20 10 0 10 -5 13 -17 8 -10 -4 -27 -10
-38 -13 -18 -5 -19 -4 -5 12 25 31 53 36 66 13 15 -27 -2 -56 -28 -49 -20 5
-25 -14 -5 -21 8 -3 6 -9 -8 -20 -19 -15 -19 -16 -1 -23 11 -4 21 -2 27 7 7
11 9 10 9 -4 0 -16 2 -16 25 -1 18 12 29 13 38 6 10 -9 13 -2 14 30 2 49 10
59 28 35 7 -10 19 -15 29 -11 10 4 18 -1 23 -12 10 -27 29 -44 48 -44 11 0 15
5 11 15 -3 8 0 15 7 15 19 0 36 -21 30 -36 -3 -8 0 -14 6 -14 6 0 11 9 11 20
0 23 10 26 28 8 9 -9 18 -9 37 0 27 13 34 42 10 42 -19 0 -19 11 -1 35 7 10
11 26 9 36 -4 13 2 20 20 24 27 7 57 57 38 63 -21 7 -11 49 15 67 26 17 27 17
21 -4 -4 -16 -1 -21 16 -21 24 0 96 -32 97 -43 0 -20 -33 -18 -56 3 -20 20
-24 21 -24 7 0 -9 4 -17 10 -17 5 0 19 -10 31 -22 15 -16 23 -19 26 -10 3 6 9
12 14 12 4 0 6 -7 2 -16 -5 -14 -3 -14 16 -2 20 11 22 19 16 61 -6 47 8 66 20
27 7 -22 39 -34 76 -28 19 2 23 8 21 28 -2 23 -2 24 11 6 17 -23 47 -15 47 13
0 14 5 18 21 14 14 -4 19 -12 16 -24 -3 -11 -1 -19 3 -19 14 0 25 23 21 48 -2
22 13 30 23 13 9 -13 46 -1 46 15 0 8 9 14 20 14 11 0 20 4 20 10 0 5 7 7 15
4 10 -4 15 0 15 10 0 9 -10 20 -23 25 -27 10 -55 41 -38 41 6 0 11 7 11 15 0
8 -6 15 -14 15 -8 0 -16 6 -19 13 -2 6 -2 0 0 -15 3 -16 0 -28 -6 -28 -9 0
-16 42 -8 54 1 2 -6 13 -16 24 -24 26 -74 26 -88 0 -5 -10 -16 -18 -24 -18
-21 0 -56 -50 -49 -72 7 -24 -21 -52 -46 -45 -11 3 -19 2 -18 -2 1 -3 -3 -16
-10 -29 -10 -16 -19 -21 -33 -17 -16 5 -19 1 -19 -25 0 -28 -2 -30 -27 -24
-59 12 -82 25 -75 42 11 29 40 55 55 49 25 -10 29 6 5 20 -22 12 -21 12 15 13
33 0 51 13 28 22 -5 2 -12 17 -16 33 -5 25 -4 27 5 12 9 -14 15 -16 26 -6 7 6
11 15 8 21 -3 5 -1 14 5 21 14 17 -3 41 -23 34 -9 -4 -16 -14 -16 -23 0 -16
-2 -15 -20 1 -12 10 -18 25 -16 32 3 7 -1 18 -8 25 -7 7 -11 19 -8 27 3 8 0
11 -7 7 -6 -4 -9 -23 -6 -46 3 -21 1 -42 -5 -45 -6 -4 -11 9 -11 32 -1 27 -3
31 -6 13 -7 -37 -23 -49 -29 -22 -4 12 -10 22 -14 22 -4 0 -12 12 -19 26 -9
21 -14 24 -26 14 -17 -14 -50 -6 -40 10 9 14 -5 13 -55 -5 -39 -14 -45 -14
-60 0 -21 19 -30 19 -30 1z m-80 -96 c0 -5 -4 -10 -10 -10 -5 0 -10 5 -10 10
0 6 5 10 10 10 6 0 10 -4 10 -10z m-953 -96 c-3 -3 -12 -4 -19 -1 -8 3 -5 6 6
6 11 1 17 -2 13 -5z m179 -20 c-9 -9 -20 -13 -24 -9 -4 3 2 13 12 21 25 18 33
10 12 -12z m1531 -11 c-3 -10 -5 -4 -5 12 0 17 2 24 5 18 2 -7 2 -21 0 -30z
m-1057 17 c0 -5 -4 -10 -9 -10 -6 0 -13 5 -16 10 -3 6 1 10 9 10 9 0 16 -4 16
-10z m-500 -40 c0 -5 -10 -10 -22 -10 -19 0 -20 2 -8 10 19 13 30 13 30 0z
m390 -4 c0 -2 -9 -6 -20 -9 -11 -3 -18 -1 -14 4 5 9 34 13 34 5z m-80 -16 c-8
-5 -22 -10 -30 -10 -13 0 -13 1 0 10 8 5 22 10 30 10 13 0 13 -1 0 -10z m200
-20 c12 -8 11 -10 -7 -10 -12 0 -25 5 -28 10 -8 13 15 13 35 0z m-56 -9 c14
-5 16 -10 7 -15 -15 -10 -61 1 -61 14 0 12 26 12 54 1z m916 -30 c0 -6 -4 -13
-10 -16 -5 -3 -10 1 -10 9 0 9 5 16 10 16 6 0 10 -4 10 -9z m-868 -93 c9 -5 9
-13 1 -30 -12 -23 -12 -23 -12 5 -1 19 -5 27 -13 24 -7 -2 -12 -14 -11 -26 3
-24 -12 -29 -21 -6 -3 8 -15 15 -26 15 -11 0 -20 5 -20 10 0 13 6 13 31 0 22
-12 24 -7 7 20 -11 16 -9 22 7 34 17 12 20 11 33 -12 7 -15 18 -30 24 -34z
m34 13 c9 -12 12 -11 17 3 8 20 27 21 27 2 0 -8 -8 -17 -17 -21 -17 -6 -17 -7
1 -21 11 -8 15 -14 9 -14 -14 0 -45 30 -68 65 -18 30 -18 30 1 15 10 -8 24
-21 30 -29z m-889 -3 c-3 -8 -6 -5 -6 6 -1 11 2 17 5 13 3 -3 4 -12 1 -19z
m978 -8 c3 -5 2 -10 -4 -10 -5 0 -18 -3 -28 -7 -16 -6 -16 -5 -4 10 15 19 27
22 36 7z m-635 -60 c0 -5 -7 -10 -16 -10 -8 0 -12 5 -9 10 3 6 10 10 16 10 5
0 9 -4 9 -10z m1018 -39 c-7 -11 -16 -17 -20 -14 -10 5 10 33 23 33 5 0 4 -9
-3 -19z m-1158 -51 c0 -5 -7 -10 -15 -10 -18 0 -20 -31 -3 -48 15 -15 -9 -45
-29 -38 -8 3 -11 1 -8 -5 4 -5 15 -7 26 -4 28 9 23 -12 -7 -32 -25 -16 -27
-16 -40 2 -16 22 -19 55 -4 55 6 0 10 9 10 20 0 10 8 24 18 29 9 6 13 11 8 11
-11 0 25 29 37 30 4 0 7 -4 7 -10z m-203 -52 c-3 -8 -6 -5 -6 6 -1 11 2 17 5
13 3 -3 4 -12 1 -19z m103 -8 c0 -5 -2 -10 -4 -10 -3 0 -8 5 -11 10 -3 6 -1
10 4 10 6 0 11 -4 11 -10z m210 -35 c0 -9 -6 -12 -15 -9 -8 4 -12 10 -9 15 8
14 24 10 24 -6z m-395 -84 c-3 -6 -11 -11 -17 -11 -6 0 -6 6 2 15 14 17 26 13
15 -4z m-124 -74 c-8 -8 -11 -7 -11 4 0 9 3 19 7 23 4 4 9 2 11 -4 3 -7 -1
-17 -7 -23z m143 8 c-4 -8 -10 -15 -15 -15 -5 0 -9 7 -9 15 0 8 7 15 15 15 9
0 12 -6 9 -15z m126 -50 c0 -8 -4 -15 -10 -15 -5 0 -10 7 -10 15 0 8 5 15 10
15 6 0 10 -7 10 -15z"/>
<path d="M12657 18873 c-4 -3 -7 -11 -7 -17 0 -6 5 -5 12 2 6 6 9 14 7 17 -3
3 -9 2 -12 -2z"/>
<path d="M15780 19270 c0 -5 5 -10 10 -10 6 0 10 5 10 10 0 6 -4 10 -10 10 -5
0 -10 -4 -10 -10z"/>
<path d="M15831 19264 c0 -11 3 -14 6 -6 3 7 2 16 -1 19 -3 4 -6 -2 -5 -13z"/>
<path d="M15858 19273 c6 -2 18 -2 25 0 6 3 1 5 -13 5 -14 0 -19 -2 -12 -5z"/>
<path d="M13433 19258 c3 -9 1 -20 -4 -25 -6 -6 -5 -14 5 -22 10 -8 16 -9 21
-1 3 5 1 10 -5 10 -7 0 -9 8 -5 19 3 11 0 23 -6 27 -8 5 -10 2 -6 -8z"/>
<path d="M15550 19240 c-9 -6 -10 -10 -3 -10 6 0 15 5 18 10 8 12 4 12 -15 0z"/>
<path d="M15600 19246 c0 -2 11 -6 25 -8 13 -3 22 -1 19 3 -5 9 -44 13 -44 5z"/>
<path d="M15810 19246 c0 -2 7 -9 15 -16 9 -7 15 -8 15 -2 0 5 -7 12 -15 16
-8 3 -15 4 -15 2z"/>
<path d="M13530 19229 c0 -5 5 -7 10 -4 6 3 10 8 10 11 0 2 -4 4 -10 4 -5 0
-10 -5 -10 -11z"/>
<path d="M13680 19223 c0 -10 4 -14 8 -8 4 6 11 13 16 18 5 4 2 7 -7 7 -10 0
-17 -8 -17 -17z"/>
<path d="M15665 19230 c3 -5 8 -10 11 -10 2 0 4 5 4 10 0 6 -5 10 -11 10 -5 0
-7 -4 -4 -10z"/>
<path d="M15774 19215 c8 -8 21 -15 28 -15 8 1 6 6 -6 15 -26 20 -42 19 -22 0z"/>
<path d="M13480 19210 c0 -5 5 -10 10 -10 6 0 10 -7 10 -15 0 -8 4 -15 9 -15
17 0 23 20 11 35 -14 17 -40 20 -40 5z"/>
<path d="M15570 19211 c0 -5 7 -14 15 -21 12 -10 15 -10 15 3 0 8 -7 17 -15
21 -8 3 -15 2 -15 -3z"/>
<path d="M13754 19197 c-8 -21 2 -35 16 -21 5 5 6 15 0 24 -8 12 -10 12 -16
-3z"/>
<path d="M15480 19200 c0 -5 5 -10 10 -10 6 0 10 5 10 10 0 6 -4 10 -10 10 -5
0 -10 -4 -10 -10z"/>
<path d="M15504 19170 c-5 -5 -29 -10 -54 -12 -40 -3 -45 -6 -50 -30 -3 -15
-13 -37 -22 -48 -10 -11 -18 -22 -18 -25 0 -11 92 -17 103 -6 17 17 22 13 23
-19 1 -17 -3 -30 -7 -30 -5 0 -9 4 -9 9 0 6 -9 9 -20 8 -27 -2 -25 -14 4 -21
20 -5 43 -43 32 -53 -10 -10 -34 11 -29 24 4 11 2 14 -8 11 -8 -2 -15 -14 -17
-26 -3 -22 8 -27 51 -24 9 1 17 -3 17 -9 0 -7 -11 -9 -29 -6 -31 6 -62 -15
-41 -28 15 -9 12 -25 -5 -25 -8 0 -15 -7 -15 -15 0 -20 -26 -19 -34 1 -4 10 1
22 11 29 10 8 14 17 10 22 -5 4 -20 -5 -33 -22 -13 -16 -19 -31 -14 -33 6 -2
10 -10 10 -17 0 -7 6 -16 13 -18 7 -4 3 -8 -10 -12 -28 -9 -28 -14 -5 -31 12
-9 13 -13 3 -14 -7 0 -11 -6 -7 -15 3 -10 -1 -15 -13 -15 -12 0 -23 -11 -30
-31 -14 -41 -14 -39 8 -39 29 0 51 -11 51 -25 0 -7 6 -15 13 -18 8 -3 6 -10
-7 -23 -13 -13 -16 -13 -7 -2 7 10 8 19 3 22 -12 7 -72 -4 -73 -13 -7 -69 -8
-67 32 -84 64 -28 103 -19 62 14 -14 12 -16 12 -8 0 6 -11 4 -13 -9 -8 -10 4
-23 7 -29 8 -19 1 46 28 70 29 16 0 20 5 16 19 -3 12 5 26 23 40 22 17 25 24
15 30 -8 5 -10 14 -7 20 4 6 12 9 17 5 6 -3 17 -3 26 0 14 6 14 9 -2 26 -10
11 -13 20 -7 20 6 0 14 -4 17 -10 3 -5 11 -10 18 -10 8 0 8 3 -1 12 -19 19
-14 30 10 17 18 -10 20 -9 15 5 -5 11 0 19 16 25 25 10 35 51 12 51 -7 0 -15
-5 -17 -11 -3 -8 -12 -9 -28 -4 l-25 9 25 7 c25 7 25 7 -7 19 -31 11 -45 30
-23 30 6 0 10 -4 10 -10 0 -17 47 -11 55 8 13 29 12 54 -2 59 -7 3 -10 10 -7
15 4 6 -2 8 -15 3 -11 -3 -21 -3 -21 2 1 15 27 43 41 43 9 1 6 7 -8 19 -13 11
-23 25 -23 31 0 7 -7 10 -16 6 -13 -5 -15 -2 -11 14 3 13 -2 25 -16 35 -12 8
-16 15 -10 15 7 0 24 11 38 24 26 24 26 25 7 44 -11 11 -24 16 -28 12z m16
-30 c0 -11 -6 -20 -14 -20 -9 0 -12 7 -9 20 3 11 9 20 14 20 5 0 9 -9 9 -20z
m-23 -336 c-3 -3 -12 -4 -19 -1 -8 3 -5 6 6 6 11 1 17 -2 13 -5z m-23 -49 c-7
-16 -24 -21 -24 -6 0 8 7 13 27 20 1 1 0 -6 -3 -14z m36 -20 c-7 -9 -15 -13
-17 -11 -7 7 7 26 19 26 6 0 6 -6 -2 -15z m-80 -95 c5 9 8 4 7 -13 -2 -24 -4
-25 -21 -13 -11 7 -22 19 -25 27 -4 12 -2 12 13 0 15 -12 19 -12 26 -1z"/>
<path d="M13490 19139 c0 -11 5 -17 10 -14 6 3 10 13 10 21 0 8 -4 14 -10 14
-5 0 -10 -9 -10 -21z"/>
<path d="M15587 19148 c-9 -6 -7 -12 6 -22 21 -16 23 -46 2 -46 -8 0 -15 -4
-15 -10 0 -18 -25 -11 -38 10 -7 12 -17 18 -22 15 -13 -8 -1 -35 16 -35 8 0
14 -7 14 -15 0 -22 21 -18 53 10 20 18 26 31 22 44 -4 13 0 23 11 29 9 5 14
14 10 20 -7 12 -41 12 -59 0z"/>
<path d="M12850 19138 c0 -7 7 -22 15 -32 16 -21 18 -15 9 22 -7 23 -24 31
-24 10z"/>
<path d="M15670 19140 c-8 -5 -11 -12 -8 -16 4 -3 14 1 23 10 18 17 9 21 -15
6z"/>
<path d="M15780 19145 c-2 -5 -3 -17 -4 -25 -1 -8 -7 -16 -14 -16 -25 -3 -27
-4 -15 -12 16 -10 93 -3 93 9 0 4 -6 6 -12 4 -18 -7 -35 6 -41 30 -2 11 -6 16
-7 10z"/>
<path d="M14015 19120 c3 -5 8 -10 11 -10 2 0 4 5 4 10 0 6 -5 10 -11 10 -5 0
-7 -4 -4 -10z"/>
<path d="M12400 19111 c0 -5 7 -11 14 -14 10 -4 13 -1 9 9 -6 15 -23 19 -23 5z"/>
<path d="M12700 19100 c0 -5 5 -10 11 -10 5 0 7 5 4 10 -3 6 -8 10 -11 10 -2
0 -4 -4 -4 -10z"/>
<path d="M12830 19101 c0 -5 5 -13 10 -16 6 -3 10 -2 10 4 0 5 -4 13 -10 16
-5 3 -10 2 -10 -4z"/>
<path d="M13940 19095 c0 -18 8 -18 40 0 l25 14 -32 1 c-23 0 -33 -5 -33 -15z"/>
<path d="M13816 19087 c-15 -11 -14 -13 16 -15 18 -1 29 1 23 6 -5 4 -13 11
-16 15 -3 4 -13 1 -23 -6z"/>
<path d="M13537 19074 c-8 -8 1 -24 14 -24 5 0 9 7 9 15 0 15 -12 20 -23 9z"/>
<path d="M14022 19060 c-10 -16 -10 -24 0 -40 23 -36 37 -25 16 11 -10 17 -10
23 0 26 6 3 12 9 12 14 0 16 -15 10 -28 -11z"/>
<path d="M14070 19069 c0 -5 5 -7 10 -4 6 3 10 8 10 11 0 2 -4 4 -10 4 -5 0
-10 -5 -10 -11z"/>
<path d="M15855 19070 c4 -6 11 -8 16 -5 14 9 11 15 -7 15 -8 0 -12 -5 -9 -10z"/>
<path d="M15917 19064 c6 -16 19 -18 27 -5 3 5 -3 11 -13 14 -14 3 -18 1 -14
-9z"/>
<path d="M12790 19045 c0 -14 4 -25 9 -25 5 0 8 11 7 25 -1 33 -16 33 -16 0z"/>
<path d="M13911 19054 c0 -11 3 -14 6 -6 3 7 2 16 -1 19 -3 4 -6 -2 -5 -13z"/>
<path d="M15820 19060 c0 -5 5 -10 10 -10 6 0 10 5 10 10 0 6 -4 10 -10 10 -5
0 -10 -4 -10 -10z"/>
<path d="M13870 19010 c0 -5 5 -10 10 -10 6 0 10 5 10 10 0 6 -4 10 -10 10 -5
0 -10 -4 -10 -10z"/>
<path d="M13935 19010 c-3 -5 1 -10 9 -10 9 0 16 5 16 10 0 6 -4 10 -9 10 -6
0 -13 -4 -16 -10z"/>
<path d="M13905 19000 c-3 -5 -1 -10 4 -10 6 0 11 5 11 10 0 6 -2 10 -4 10 -3
0 -8 -4 -11 -10z"/>
<path d="M13393 18993 c-45 -6 -41 -18 7 -31 38 -9 40 -9 40 14 0 13 -3 23 -7
22 -5 0 -23 -3 -40 -5z"/>
<path d="M11860 18970 c0 -5 5 -10 11 -10 5 0 7 5 4 10 -3 6 -8 10 -11 10 -2
0 -4 -4 -4 -10z"/>
<path d="M15901 18964 c0 -11 3 -14 6 -6 3 7 2 16 -1 19 -3 4 -6 -2 -5 -13z"/>
<path d="M15950 18960 c0 -19 3 -21 12 -12 9 9 9 15 0 24 -9 9 -12 7 -12 -12z"/>
<path d="M13860 18930 c0 -5 5 -10 11 -10 5 0 7 5 4 10 -3 6 -8 10 -11 10 -2
0 -4 -4 -4 -10z"/>
<path d="M13930 18920 c-8 -5 -10 -10 -5 -10 6 0 17 5 25 10 8 5 11 10 5 10
-5 0 -17 -5 -25 -10z"/>
<path d="M15200 18919 c0 -5 5 -7 10 -4 6 3 10 8 10 11 0 2 -4 4 -10 4 -5 0
-10 -5 -10 -11z"/>
<path d="M13788 18913 c7 -3 16 -2 19 1 4 3 -2 6 -13 5 -11 0 -14 -3 -6 -6z"/>
<path d="M15151 18899 c-7 -12 -10 -23 -8 -26 3 -3 11 5 17 17 15 28 8 35 -9
9z"/>
<path d="M13728 18903 c-17 -4 -26 -33 -10 -33 10 1 42 26 42 34 0 6 -5 6 -32
-1z"/>
<path d="M13615 18880 c-3 -5 1 -10 9 -10 8 0 18 5 21 10 3 6 -1 10 -9 10 -8
0 -18 -4 -21 -10z"/>
<path d="M13825 18880 c-5 -9 -4 -15 3 -18 17 -5 15 -30 -3 -34 -12 -2 -11 -6
6 -16 11 -8 18 -9 14 -3 -8 14 18 41 40 41 9 0 13 5 10 10 -3 6 -17 10 -30 10
-13 0 -25 5 -27 12 -3 9 -7 8 -13 -2z"/>
<path d="M13665 18854 c-11 -8 -24 -13 -30 -10 -7 2 -11 -5 -10 -17 1 -15 9
-23 26 -25 32 -5 50 -21 47 -41 -4 -19 33 -22 40 -3 2 6 -3 12 -12 12 -10 0
-16 9 -16 25 0 18 5 25 20 25 11 0 20 5 20 10 0 6 5 10 10 10 6 0 10 -9 10
-20 0 -28 19 -25 30 6 6 14 10 27 10 29 0 7 -69 0 -76 -8 -12 -12 -24 -8 -24
8 0 19 -19 19 -45 -1z m5 -24 c0 -5 -2 -10 -4 -10 -3 0 -8 5 -11 10 -3 6 -1
10 4 10 6 0 11 -4 11 -10z"/>
<path d="M13345 18840 c-16 -7 -17 -9 -3 -9 9 -1 20 4 23 9 7 11 7 11 -20 0z"/>
<path d="M14198 18843 c7 -3 16 -2 19 1 4 3 -2 6 -13 5 -11 0 -14 -3 -6 -6z"/>
<path d="M15600 18825 c0 -8 5 -15 10 -15 6 0 10 7 10 15 0 8 -4 15 -10 15 -5
0 -10 -7 -10 -15z"/>
<path d="M13575 18820 c-3 -5 1 -10 9 -10 9 0 16 5 16 10 0 6 -4 10 -9 10 -6
0 -13 -4 -16 -10z"/>
<path d="M13260 18790 c-13 -8 -12 -10 3 -10 9 0 17 5 17 10 0 12 -1 12 -20 0z"/>
<path d="M12394 18756 c-4 -17 -13 -26 -25 -26 -25 0 -24 -12 2 -29 18 -11 23
-11 30 0 4 8 4 16 -1 19 -11 7 0 25 19 31 11 4 10 7 -2 18 -14 11 -17 9 -23
-13z"/>
<path d="M13620 18768 c0 -4 9 -8 20 -8 11 0 20 4 20 8 0 4 -9 8 -20 8 -11 0
-20 -4 -20 -8z"/>
<path d="M15903 18763 c-15 -5 -17 -23 -4 -23 5 0 11 7 15 15 3 8 4 15 3 14
-1 0 -8 -3 -14 -6z"/>
<path d="M15990 18760 c20 -13 53 -13 45 0 -3 6 -18 10 -33 10 -21 0 -24 -2
-12 -10z"/>
<path d="M13250 18749 c0 -5 5 -7 10 -4 6 3 10 8 10 11 0 2 -4 4 -10 4 -5 0
-10 -5 -10 -11z"/>
<path d="M13588 18753 c0 -5 -1 -15 -2 -23 -1 -8 -10 -16 -21 -18 -11 -2 -24
-8 -30 -13 -13 -13 14 -30 37 -23 10 3 18 -2 21 -13 2 -10 4 -2 4 18 1 21 4
46 8 58 4 12 2 21 -4 21 -6 0 -12 -3 -13 -7z"/>
<path d="M15927 18753 c-13 -13 -7 -21 13 -16 13 4 20 0 20 -10 0 -8 9 -17 20
-20 27 -7 25 5 -5 31 -26 23 -37 26 -48 15z"/>
<path d="M12600 18740 c0 -5 9 -10 21 -10 11 0 17 5 14 10 -3 6 -13 10 -21 10
-8 0 -14 -4 -14 -10z"/>
<path d="M12435 18720 c4 -12 2 -27 -4 -34 -9 -10 10 -8 68 7 44 12 77 25 75
29 -7 12 -72 10 -79 -2 -10 -15 -35 -12 -35 5 0 8 -7 15 -16 15 -11 0 -14 -6
-9 -20z"/>
<path d="M13440 18724 c0 -11 26 -32 50 -39 25 -7 25 -7 -3 19 -26 24 -47 33
-47 20z"/>
<path d="M13615 18700 c3 -5 8 -10 11 -10 2 0 4 5 4 10 0 6 -5 10 -11 10 -5 0
-7 -4 -4 -10z"/>
<path d="M13688 18683 c7 -3 16 -2 19 1 4 3 -2 6 -13 5 -11 0 -14 -3 -6 -6z"/>
<path d="M13460 18670 c0 -5 5 -10 10 -10 6 0 10 5 10 10 0 6 -4 10 -10 10 -5
0 -10 -4 -10 -10z"/>
<path d="M15938 18653 c5 -21 7 -23 10 -9 2 10 0 22 -6 28 -6 6 -7 0 -4 -19z"/>
<path d="M11548 18643 c7 -3 16 -2 19 1 4 3 -2 6 -13 5 -11 0 -14 -3 -6 -6z"/>
<path d="M12970 18639 c0 -5 5 -7 10 -4 6 3 10 8 10 11 0 2 -4 4 -10 4 -5 0
-10 -5 -10 -11z"/>
<path d="M13010 18634 c0 -8 5 -12 10 -9 6 3 10 10 10 16 0 5 -4 9 -10 9 -5 0
-10 -7 -10 -16z"/>
<path d="M13095 18640 c-3 -5 -1 -10 4 -10 6 0 11 5 11 10 0 6 -2 10 -4 10 -3
0 -8 -4 -11 -10z"/>
<path d="M13520 18641 c0 -10 25 -21 48 -21 15 1 14 3 -2 15 -22 17 -46 20
-46 6z"/>
<path d="M12505 18630 c-3 -6 1 -13 10 -16 19 -8 30 0 20 15 -8 14 -22 14 -30
1z"/>
<path d="M12900 18630 c0 -5 5 -10 10 -10 6 0 10 5 10 10 0 6 -4 10 -10 10 -5
0 -10 -4 -10 -10z"/>
<path d="M13040 18599 c0 -5 5 -7 10 -4 6 3 10 8 10 11 0 2 -4 4 -10 4 -5 0
-10 -5 -10 -11z"/>
<path d="M11500 18589 c0 -5 5 -7 10 -4 6 3 10 8 10 11 0 2 -4 4 -10 4 -5 0
-10 -5 -10 -11z"/>
<path d="M11530 18581 c0 -11 4 -21 9 -21 18 0 21 18 6 30 -13 10 -15 9 -15
-9z"/>
<path d="M12864 18588 c-9 -14 74 -13 88 1 4 3 -13 6 -38 6 -25 0 -48 -3 -50
-7z"/>
<path d="M15170 18584 c0 -8 5 -14 11 -14 5 0 7 -5 4 -10 -4 -6 -11 -7 -17 -4
-6 4 -17 -1 -25 -11 -12 -17 -13 -17 -13 10 l0 29 -16 -22 c-17 -25 -11 -42
14 -42 15 0 15 -2 2 -10 -21 -13 -33 -12 -24 2 5 8 0 9 -17 5 -13 -4 -29 -7
-34 -7 -6 0 -11 -9 -11 -20 0 -22 16 -26 33 -9 8 8 17 8 31 0 31 -17 66 -13
81 8 8 11 20 17 27 14 6 -2 15 0 19 6 3 7 -2 11 -14 11 -17 0 -19 5 -14 34 4
28 2 34 -16 39 -14 3 -21 0 -21 -9z m24 -63 c3 -5 -1 -11 -9 -15 -9 -3 -15 0
-15 9 0 16 16 20 24 6z"/>
<path d="M11570 18568 c0 -18 18 -34 28 -24 3 4 -2 14 -11 23 -16 16 -17 16
-17 1z"/>
<path d="M12440 18565 c7 -9 15 -13 17 -11 7 7 -7 26 -19 26 -6 0 -6 -6 2 -15z"/>
<path d="M15240 18554 c0 -31 23 -28 28 4 2 15 -2 22 -12 22 -11 0 -16 -9 -16
-26z"/>
<path d="M12293 18555 c-19 -21 -16 -27 7 -13 11 7 20 16 20 20 0 12 -14 9
-27 -7z"/>
<path d="M12865 18550 c3 -5 10 -10 16 -10 5 0 9 5 9 10 0 6 -7 10 -16 10 -8
0 -12 -4 -9 -10z"/>
<path d="M12913 18535 c-24 -27 -17 -31 22 -13 14 6 25 17 25 25 0 21 -23 15
-47 -12z"/>
<path d="M11490 18504 c0 -8 5 -12 10 -9 6 3 10 10 10 16 0 5 -4 9 -10 9 -5 0
-10 -7 -10 -16z"/>
<path d="M13336 18511 c-4 -7 -5 -15 -2 -18 9 -9 19 4 14 18 -4 11 -6 11 -12
0z"/>
<path d="M13400 18505 c12 -15 30 -12 30 6 0 5 -10 9 -21 9 -18 0 -19 -2 -9
-15z"/>
<path d="M12906 18480 c-11 -11 -16 -26 -12 -36 3 -9 1 -23 -5 -30 -9 -11 -8
-15 4 -20 16 -6 20 -44 5 -44 -4 0 -8 -7 -8 -15 0 -8 -4 -15 -10 -15 -5 0 -10
6 -10 13 0 8 -4 7 -10 -3 -5 -8 -8 -22 -6 -30 3 -8 7 -25 11 -37 4 -13 2 -23
-4 -23 -5 0 -13 20 -17 45 -7 47 -23 62 -25 23 -1 -22 -1 -22 -9 2 l-7 25 -8
-27 c-4 -18 -14 -28 -25 -28 -10 0 -27 -3 -37 -7 -17 -6 -17 -6 -1 10 9 9 24
17 34 17 13 0 14 3 4 15 -7 8 -16 12 -21 10 -4 -3 -12 3 -18 12 -10 17 -10 17
-11 -1 0 -15 -5 -17 -29 -13 -24 5 -30 2 -36 -16 l-8 -22 -4 23 c-4 23 -5 23
-24 6 -15 -14 -17 -20 -7 -26 9 -6 2 -8 -19 -5 -18 2 -35 -1 -37 -7 -2 -6 -5
0 -5 14 -1 14 -5 31 -10 39 -7 11 -11 10 -20 -7 -14 -26 -14 -52 -1 -52 21 0
9 -19 -26 -41 -32 -20 -35 -24 -21 -34 25 -18 7 -27 -18 -11 -20 13 -23 13
-33 -7 -5 -12 -13 -30 -16 -39 -3 -10 -13 -17 -23 -17 -17 1 -17 2 0 6 10 3
17 13 16 26 -1 17 -2 18 -6 5 -2 -10 -13 -18 -23 -18 -10 0 -20 -5 -22 -12 -3
-7 -21 -12 -41 -12 -22 0 -37 -5 -37 -12 0 -6 -12 -11 -27 -11 -27 0 -57 -29
-47 -44 3 -5 -1 -9 -10 -9 -8 0 -16 3 -19 8 -2 4 -3 2 -1 -4 3 -14 -47 -64
-63 -64 -6 0 -13 -10 -17 -23 -4 -16 -14 -23 -32 -25 -15 -1 -32 -9 -39 -19
-8 -11 -14 -13 -19 -5 -4 7 -5 16 -2 21 3 5 -1 14 -9 21 -12 10 -15 9 -15 -4
0 -18 -9 -20 -43 -7 -21 8 -26 6 -31 -12 -6 -20 -7 -21 -17 -4 -9 15 -12 15
-25 3 -16 -17 -19 -30 -4 -21 6 3 10 1 10 -4 0 -6 -8 -11 -17 -12 -11 0 -13
-3 -5 -6 15 -6 16 -33 1 -33 -8 0 -7 -6 2 -16 12 -15 11 -16 -9 -10 -27 9 -47
-9 -49 -43 -2 -30 -12 -39 -22 -22 -6 10 -11 5 -16 -18 -4 -18 -15 -37 -25
-44 -15 -9 -17 -14 -7 -26 10 -12 8 -14 -11 -8 -17 4 -22 2 -19 -7 3 -7 -3
-18 -14 -24 -11 -7 -18 -21 -16 -34 1 -17 -4 -24 -21 -26 -12 -2 -20 -8 -17
-13 4 -5 3 -9 -2 -9 -4 0 -14 -14 -21 -30 -8 -17 -18 -27 -24 -24 -12 8 -46
-28 -40 -44 4 -13 -50 -72 -67 -72 -6 0 -8 -7 -5 -15 8 -20 -5 -87 -15 -80 -5
3 -12 -6 -15 -20 -4 -14 -10 -25 -15 -25 -5 0 -7 -9 -4 -20 3 -13 -1 -22 -11
-26 -9 -4 -26 -26 -37 -50 -11 -26 -26 -44 -36 -44 -15 0 -15 -2 0 -17 16 -19
21 -109 5 -119 -4 -3 -8 -18 -8 -34 0 -16 -5 -32 -10 -35 -6 -4 -8 -10 -5 -15
3 -5 0 -12 -6 -15 -5 -4 -8 -14 -5 -22 3 -8 2 -12 -2 -9 -5 3 -9 -8 -10 -24
-3 -52 -5 -60 -14 -60 -4 0 -8 -16 -8 -35 0 -19 -4 -35 -9 -35 -5 0 -7 -8 -4
-19 3 -10 0 -22 -7 -26 -8 -5 -8 -10 1 -21 11 -14 14 -65 9 -164 -4 -70 9
-220 21 -242 5 -9 6 -24 3 -32 -3 -9 0 -39 7 -68 8 -29 14 -57 14 -63 0 -5 4
-15 8 -22 4 -7 5 -25 1 -40 -4 -20 -3 -24 4 -14 10 14 14 4 28 -74 3 -16 9
-32 13 -35 4 -3 12 -27 19 -55 26 -107 37 -141 54 -156 10 -9 18 -21 18 -28 0
-6 3 -11 8 -11 8 0 17 -16 51 -88 12 -24 28 -50 36 -58 8 -9 18 -26 21 -40 3
-13 10 -24 14 -24 4 0 11 -11 14 -25 4 -14 11 -25 16 -25 16 0 100 -89 100
-106 0 -8 7 -14 15 -14 8 0 15 -5 15 -12 0 -15 118 -128 135 -128 6 0 17 -10
24 -23 7 -13 29 -32 49 -43 20 -10 43 -25 51 -32 18 -17 91 -54 91 -46 0 3 16
-8 35 -25 19 -16 56 -37 82 -44 44 -13 124 -46 165 -68 10 -5 25 -9 33 -9 9 0
14 -4 11 -9 -3 -5 12 -11 34 -15 22 -3 40 -10 40 -14 0 -9 51 -32 87 -38 15
-3 42 -9 58 -14 109 -33 166 -41 241 -36 43 3 106 7 139 9 96 6 185 19 185 27
0 4 24 8 53 9 70 1 161 8 211 17 36 6 163 59 176 74 13 15 140 72 152 68 49
-17 387 257 528 427 14 17 43 53 66 80 54 66 150 241 194 355 7 19 17 40 21
45 5 6 11 30 15 53 4 23 10 42 14 42 4 0 10 24 13 53 4 28 11 75 17 102 28
136 48 411 29 399 -12 -7 -11 10 1 22 5 5 9 23 9 39 -1 64 -6 121 -12 135 -3
8 -15 64 -27 125 -12 60 -25 114 -30 120 -5 6 -17 47 -25 91 -9 43 -21 87 -26
96 -5 10 -9 26 -9 37 0 10 -20 46 -45 80 -25 34 -45 69 -45 79 0 10 -5 23 -11
29 -6 6 -12 17 -13 24 -7 33 -28 71 -50 92 -13 12 -26 33 -27 47 -2 13 -16 37
-31 52 -16 16 -28 35 -28 43 0 7 -17 28 -38 47 -21 18 -41 41 -45 51 -3 9 -14
17 -24 17 -10 0 -24 9 -31 20 -7 11 -19 20 -27 20 -8 0 -15 6 -15 13 0 6 -12
23 -25 36 -14 13 -25 27 -25 33 0 5 -4 7 -9 3 -5 -3 -25 4 -43 15 -29 16 -34
25 -33 54 1 19 -1 34 -4 33 -14 -4 -61 37 -61 54 0 10 -5 21 -12 25 -7 4 -8 3
-4 -4 4 -7 1 -12 -8 -12 -9 0 -16 6 -16 14 0 17 -24 28 -45 20 -11 -5 -13 -2
-9 10 4 12 0 16 -15 16 -14 0 -19 5 -15 15 7 18 -34 30 -75 22 -23 -5 -32 -1
-45 18 -14 22 -65 42 -93 36 -7 -1 -13 2 -13 8 0 5 -10 7 -22 4 -17 -3 -19 -2
-9 5 13 9 -19 18 -84 24 -11 1 -29 10 -39 20 -18 16 -20 16 -31 1 -13 -18 -37
-10 -29 10 5 15 -77 42 -114 38 -13 -1 -21 2 -18 8 9 14 -4 41 -20 41 -17 0
-18 -17 -1 -23 9 -4 9 -6 -1 -6 -7 -1 -16 7 -19 17 -4 9 -11 20 -16 23 -4 3
-1 13 7 22 20 19 21 34 2 18 -7 -6 -22 -8 -31 -4 -12 4 -16 3 -12 -4 4 -6 4
-19 1 -28 -5 -13 -11 -9 -32 19 -27 39 -33 41 -62 26 -13 -7 -21 -7 -25 0 -3
5 -14 10 -24 10 -14 0 -17 6 -13 25 2 14 8 25 13 25 5 0 9 7 9 15 0 24 -14 17
-33 -15 -15 -25 -21 -28 -38 -20 -22 12 -16 32 7 23 10 -4 17 2 21 16 5 20 10
23 45 25 10 1 18 4 18 9 1 38 -2 47 -14 47 -8 0 -16 -7 -18 -15 -2 -12 -9 -10
-30 10 -32 29 -37 30 -62 5z m44 -154 c0 -11 -19 -15 -25 -6 -3 5 1 10 9 10 9
0 16 -2 16 -4z m-40 -50 c0 -2 -7 -9 -15 -16 -13 -11 -14 -10 -9 4 5 14 24 23
24 12z m-300 -26 c0 -5 -7 -10 -15 -10 -8 0 -15 5 -15 10 0 6 7 10 15 10 8 0
15 -4 15 -10z m-72 -48 c-10 -2 -18 -8 -18 -14 0 -6 -3 -8 -6 -5 -11 10 17 38
30 30 7 -5 5 -9 -6 -11z m-93 -31 c3 -5 1 -12 -5 -16 -5 -3 -10 1 -10 9 0 18
6 21 15 7z m-620 -371 c3 -5 1 -10 -4 -10 -6 0 -11 5 -11 10 0 6 2 10 4 10 3
0 8 -4 11 -10z"/>
<path d="M13430 18466 c0 -8 4 -17 9 -20 5 -4 7 3 4 14 -6 23 -13 26 -13 6z"/>
<path d="M15328 18473 c7 -3 16 -2 19 1 4 3 -2 6 -13 5 -11 0 -14 -3 -6 -6z"/>
<path d="M11459 18460 c-1 -8 -1 -20 0 -26 1 -7 -5 -14 -14 -18 -8 -3 -15 -10
-15 -16 0 -6 12 0 26 13 21 20 24 28 15 43 -8 15 -11 16 -12 4z"/>
<path d="M11545 18460 c-4 -6 -15 -8 -25 -5 -10 3 -21 1 -25 -5 -3 -5 -1 -10
6 -10 7 0 21 -7 31 -17 17 -15 18 -15 18 0 0 23 20 22 20 0 1 -16 2 -16 15 1
11 14 12 23 4 33 -14 16 -35 17 -44 3z"/>
<path d="M13066 18455 c-17 -13 -18 -15 -3 -15 9 0 17 -4 17 -10 0 -5 7 -10
15 -10 8 0 15 5 15 10 0 6 -7 10 -15 10 -18 0 -20 16 -2 23 6 3 8 6 2 6 -5 0
-19 -6 -29 -14z"/>
<path d="M13216 18455 c-3 -9 0 -15 9 -15 16 0 20 16 6 24 -5 3 -11 -1 -15 -9z"/>
<path d="M13267 18456 c-4 -10 -1 -13 9 -9 7 3 14 9 14 14 0 14 -17 10 -23 -5z"/>
<path d="M15082 18445 c-17 -20 5 -20 24 0 12 11 12 15 2 15 -7 -1 -19 -7 -26
-15z"/>
<path d="M13490 18440 c0 -5 7 -7 15 -4 8 4 15 8 15 10 0 2 -7 4 -15 4 -8 0
-15 -4 -15 -10z"/>
<path d="M12168 18433 c7 -3 16 -2 19 1 4 3 -2 6 -13 5 -11 0 -14 -3 -6 -6z"/>
<path d="M15120 18421 c0 -14 23 -20 54 -14 20 4 24 8 14 14 -17 11 -68 11
-68 0z"/>
<path d="M15219 18411 c-9 -10 -18 -28 -22 -40 -5 -21 -4 -22 12 -7 10 9 23
16 29 16 7 0 12 11 12 25 0 29 -9 30 -31 6z"/>
<path d="M13260 18410 c0 -5 5 -10 10 -10 6 0 10 5 10 10 0 6 -4 10 -10 10 -5
0 -10 -4 -10 -10z"/>
<path d="M11982 18398 c-7 -7 -12 -23 -11 -37 0 -16 3 -20 6 -11 4 8 12 20 19
25 8 6 10 15 6 22 -6 10 -11 10 -20 1z"/>
<path d="M12504 18394 c3 -9 6 -20 6 -25 0 -5 7 -9 15 -9 20 0 19 16 -1 24 -8
3 -12 10 -9 16 3 5 1 10 -5 10 -7 0 -9 -7 -6 -16z"/>
<path d="M15150 18363 c-13 -15 -12 -16 4 -10 10 4 20 7 22 7 2 0 4 5 4 10 0
15 -13 12 -30 -7z"/>
<path d="M13035 18360 c-8 -13 5 -13 25 0 13 8 13 10 -2 10 -9 0 -20 -4 -23
-10z"/>
<path d="M11997 18343 c-4 -3 -7 -13 -7 -22 1 -13 3 -13 11 2 11 19 8 33 -4
20z"/>
<path d="M12563 18335 c-9 -26 4 -28 28 -6 l23 21 -22 0 c-13 0 -25 -7 -29
-15z"/>
<path d="M11330 18329 c0 -5 5 -7 10 -4 6 3 10 8 10 11 0 2 -4 4 -10 4 -5 0
-10 -5 -10 -11z"/>
<path d="M11357 18261 c-4 -17 -3 -21 5 -13 5 5 8 16 6 23 -3 8 -7 3 -11 -10z"/>
<path d="M13277 18239 c7 -7 15 -10 18 -7 3 3 -2 9 -12 12 -14 6 -15 5 -6 -5z"/>
<path d="M11822 18228 c-14 -14 -16 -28 -3 -28 9 0 24 30 18 36 -2 2 -9 -2
-15 -8z"/>
<path d="M12020 17976 c0 -8 5 -18 10 -21 6 -3 10 1 10 9 0 8 -4 18 -10 21 -5
3 -10 -1 -10 -9z"/>
</g>
</svg>
